PathFileType	4	(X/Y/Z)	c:/Users/goper/Files/vsCode/490R/osim_files/A03/A03_Fast_04.trc
DataRate	CameraRate	NumFrames	NumMarkers	Units                	OrigDataRate	OrigDataStartFrame	OrigNumFrames
250.00	250.00	10	36	mm	250.0	1008	2687
                Frame#	Time	LPSIS			LASIS			LTH1			LTH2			LTH3			LTH4			LLFE			LMFE			LSH1			LSH2			LSH3			LSH4			LLMAL			LMMAL			LCAL			LMTP5			LTOE			LMTP1			RPSIS			RASIS			RTH1			RTH2			RTH3			RTH4			RLFE			RMFE			RSH1			RSH2			RSH3			RSH4			RLMAL			RMMAL			RCAL			RMTP1			RTOE			RMTP5		
		X1	Y1	Z1	X2	Y2	Z2	X3	Y3	Z3	X4	Y4	Z4	X5	Y5	Z5	X6	Y6	Z6	X7	Y7	Z7	X8	Y8	Z8	X9	Y9	Z9	X10	Y10	Z10	X11	Y11	Z11	X12	Y12	Z12	X13	Y13	Z13	X14	Y14	Z14	X15	Y15	Z15	X16	Y16	Z16	X17	Y17	Z17	X18	Y18	Z18	X19	Y19	Z19	X20	Y20	Z20	X21	Y21	Z21	X22	Y22	Z22	X23	Y23	Z23	X24	Y24	Z24	X25	Y25	Z25	X26	Y26	Z26	X27	Y27	Z27	X28	Y28	Z28	X29	Y29	Z29	X30	Y30	Z30	X31	Y31	Z31	X32	Y32	Z32	X33	Y33	Z33	X34	Y34	Z34	X35	Y35	Z35	X36	Y36	Z36

1008	4.02800	325.01825	1082.67224	287.72150	95.16029	987.42694	421.33643	208.05107	640.61523	441.63632	206.28909	597.55719	438.54056	149.86528	638.60382	423.35327	157.81525	595.20538	420.92722	224.84721	554.27899	428.85361	206.10675	547.90704	274.26944	272.65439	470.24445	427.67023	273.03113	421.63989	426.14767	211.35078	461.87631	420.83261	222.51202	415.68842	415.50159	287.84372	98.97000	387.81357	282.35077	107.00801	292.08347	360.70224	84.67916	338.31436	137.55342	43.92308	393.33444	113.05700	76.35099	322.89664	143.76524	54.77295	279.44394	319.97174	1083.37561	205.35063	74.55402	1000.03607	126.63860	30.68459	650.75732	56.56810	16.36275	609.41254	63.58712	-29.02050	665.88922	65.77630	-35.99529	622.60791	70.89966	-11.63482	582.51123	79.08491	-40.53827	589.34943	200.03352	45.10647	520.34174	69.44548	51.03498	479.62149	58.06414	-15.07348	504.29379	73.85955	0.13925	460.02618	62.78453	97.33913	169.56064	107.30287	0.00000	0.00000	0.00000	162.07135	134.28752	160.29884	-43.92935	77.66359	213.12589	-74.94548	96.69961	165.69818	-40.72543	61.49030	98.82467
1009	4.03200	319.70361	1082.06030	287.68692	90.05907	986.68170	421.46271	206.01176	640.80719	441.23962	204.47795	597.44501	438.45282	147.69102	637.98053	423.27707	156.03064	594.62268	420.79819	223.66570	554.23767	428.79422	204.91360	547.76562	274.27518	271.78101	470.31149	427.59433	272.26849	421.70090	426.08426	210.52777	461.76071	420.76801	221.76442	415.62982	415.47064	287.86414	98.99249	387.81042	282.33810	106.96127	291.94217	360.74777	84.75143	338.29184	137.58601	43.89447	393.32312	113.04276	76.35889	322.85449	143.74706	54.74670	279.43823	314.56500	1082.63794	205.35698	69.01214	999.55536	126.73438	25.19704	650.34973	57.59184	10.43382	608.69135	64.69347	-33.89042	665.65778	66.35808	-41.87756	622.10541	71.93680	-17.80339	581.96368	80.19156	-46.56709	589.13293	200.93394	37.85672	518.51703	70.47093	42.76600	477.74792	59.04207	-22.71392	504.06372	74.88644	-8.73298	459.40814	63.57227	79.96745	166.09200	107.17701	0.00000	0.00000	0.00000	143.91730	128.92522	160.46623	-63.94311	78.07550	212.05083	-94.21357	98.10210	164.68120	-60.78673	62.15364	97.82724
1010	4.03600	314.42245	1081.44275	287.63779	84.92090	985.84351	421.55765	203.44678	640.34869	441.53461	202.55219	597.25873	438.35913	145.43434	637.32654	423.15146	154.13152	594.07434	420.63733	222.42940	554.13049	428.64047	203.76440	547.62317	274.14606	270.82257	470.33182	427.48856	271.43188	421.71597	425.99261	209.61099	461.63095	420.70114	220.94279	415.56061	415.39655	287.81769	98.98027	387.82468	282.30847	106.96494	291.94595	360.73135	84.77255	338.29968	137.56775	43.85486	393.34964	113.05615	76.31133	322.85538	143.75499	54.71836	279.44724	309.13852	1081.84778	205.35722	63.41995	998.97101	126.83903	19.56879	649.48572	58.61098	4.76074	607.91742	65.77291	-39.86720	664.81903	67.51210	-47.61275	621.46112	72.93970	-23.74953	581.35571	81.26711	-52.53036	588.85883	201.85411	30.61823	516.58490	71.48936	34.59241	475.79611	60.12738	-30.15351	503.83734	76.02094	-17.51719	458.74484	64.34539	62.68640	162.86664	106.94826	0.00000	0.00000	0.00000	125.90036	124.35980	160.99869	-83.85699	78.80711	211.13470	-113.51253	99.72005	163.69144	-80.83623	63.12781	96.83807
1011	4.04000	309.01993	1080.74890	287.57510	79.82076	984.96466	421.70349	201.19846	640.37994	441.07367	200.48682	597.04956	438.20917	143.07152	636.68970	423.03400	151.71870	593.45947	420.55939	221.07214	554.04755	428.51697	202.48924	547.45056	274.05194	269.77029	470.37335	427.37317	270.55289	421.77350	425.90970	208.58157	461.51682	420.64084	220.11984	415.47296	415.35266	287.82602	99.01150	387.83804	282.27850	106.96323	291.95721	360.70364	84.77428	338.29141	137.58177	43.84932	393.36984	112.22200	75.86353	323.08905	143.77000	54.69234	279.44055	303.67361	1081.03064	205.35234	57.77423	998.39362	126.91698	14.08419	648.56635	59.63282	-1.00475	607.01447	66.90350	-45.39402	664.11151	68.42493	-52.88293	620.82245	73.98608	-29.59594	580.58221	82.38168	-58.31972	588.41803	202.78764	23.43024	514.61267	72.55770	26.62662	473.90634	61.30055	-38.24889	503.13202	76.63039	-26.17156	458.22208	65.06773	45.85097	159.78044	106.70999	0.00000	0.00000	0.00000	107.26179	119.42796	160.91309	-104.30362	79.78535	210.14966	-132.67560	101.86512	162.70815	-100.84016	64.44864	95.82796
1012	4.04400	303.71390	1080.09094	287.47424	74.65990	984.03253	421.73727	198.59752	639.93988	441.32031	198.39812	596.85516	438.07532	140.65906	636.00983	422.88217	150.02820	592.93457	420.37979	219.62164	553.95868	428.37592	201.13544	547.24133	273.91388	268.69092	470.38364	427.25742	269.55423	421.78644	425.80768	207.47551	461.38583	420.52725	219.11406	415.34433	415.24084	287.80450	99.01679	387.81552	282.20584	106.95245	291.94650	360.67435	84.79615	338.29144	137.56981	43.83512	393.35703	112.16969	75.79897	323.10037	143.57848	54.66391	279.62762	298.16846	1080.19714	205.35263	52.11857	997.73138	126.92130	8.64194	647.53046	60.72821	-6.49964	606.05450	67.97234	-50.80439	663.27039	69.39082	-58.86563	619.94641	74.89938	-35.38579	579.73315	83.51062	-64.02705	587.87915	203.75674	16.40969	512.64478	73.62788	17.95592	471.65979	61.83110	-45.07786	502.87839	77.35894	-34.75839	457.57022	65.89544	28.39202	157.30075	106.54518	0.00000	0.00000	0.00000	87.33481	113.55573	159.78302	-123.88881	80.99052	209.18895	-151.77396	103.97599	161.72139	-120.62215	65.98380	94.97272
1013	4.04800	298.33871	1079.38953	287.37198	69.25334	983.10034	421.39294	196.54364	639.86963	441.13202	196.26123	596.55176	437.94119	138.21902	635.26196	422.74518	147.59537	592.15918	420.21698	218.13298	553.82538	428.23590	199.72197	547.05811	273.77457	267.45679	470.36139	427.14600	268.52545	421.79846	425.70065	206.35556	461.21207	420.42371	218.11783	415.19846	415.14923	287.75467	99.01909	387.80725	282.17017	106.92683	291.97107	360.67706	84.82481	338.27863	137.53009	43.78068	393.33777	112.10266	75.71357	323.09772	143.53662	54.38631	279.47931	292.69366	1079.33765	205.34525	46.51566	997.01978	126.85038	3.28391	646.40485	61.85437	-12.07671	604.98114	69.03839	-55.72052	662.50281	70.03192	-63.95559	619.10791	75.85951	-41.12145	578.78577	84.54597	-69.65529	587.26062	204.76353	9.57029	510.79044	74.83646	9.80703	469.63950	62.76484	-52.40170	502.52594	78.28574	-43.20044	456.93274	66.77925	11.03044	154.98471	106.27571	0.00000	0.00000	0.00000	69.08850	109.33672	159.77286	-143.66069	82.62051	208.27458	-170.82072	106.50591	160.75961	-140.47913	67.99567	93.96748
1014	4.05200	292.96576	1078.66528	287.26175	64.29910	981.80212	421.28958	193.86249	639.36719	441.31049	194.06998	596.24365	437.81192	135.74600	634.48303	422.57166	145.42795	591.50702	420.03101	216.54225	553.67981	428.06567	198.14383	546.80420	273.62527	266.22903	470.39038	426.99939	267.39987	421.80374	425.59570	205.10822	461.01340	420.29236	216.97441	415.04077	415.01129	287.73004	98.99624	387.82904	282.09695	106.89330	291.98764	360.64841	84.84605	338.28455	137.55885	43.73219	393.34351	112.99318	76.16749	322.87106	143.54550	54.36256	279.46875	287.18854	1078.44995	205.32605	40.84405	997.70654	126.06559	-1.99615	645.23730	62.91789	-17.58221	603.83917	70.15697	-61.41809	661.34900	71.09540	-69.86253	618.05829	76.69254	-46.64379	576.71643	86.67438	-75.08495	586.46606	205.78271	2.38286	508.51419	75.76878	1.70264	467.61566	63.72170	-59.56490	502.17828	79.17995	-51.61121	456.34982	67.45501	-6.48604	153.02730	105.85561	0.00000	0.00000	0.00000	50.33114	105.24731	159.62486	-163.55060	84.41692	207.40205	-190.09598	109.61310	160.41817	-160.14066	70.31414	92.95343
1015	4.05600	287.64444	1077.95032	287.12912	59.87271	981.62457	422.20523	191.38829	639.20239	440.94791	191.80339	595.86609	437.64542	133.17599	633.69696	422.42981	143.19594	590.77930	419.84622	214.80737	553.52972	427.89236	196.45181	546.52411	273.51050	264.90628	470.40298	426.83975	266.23593	421.82913	425.43811	203.80016	460.79898	420.17145	215.88156	414.89337	414.93546	287.77142	99.01151	387.83194	282.09186	106.91496	291.93655	360.64716	84.84951	338.26593	137.58873	43.70145	393.34631	112.95630	76.06931	322.84161	143.87259	54.50586	279.34674	281.76645	1077.56116	205.27066	35.27472	996.79486	126.02729	-7.49166	643.58539	63.98344	-22.94874	602.61121	71.16103	-66.62852	660.25555	71.89952	-75.28407	616.95782	77.63103	-52.23606	575.64929	87.80582	-80.54464	585.60614	206.87645	-4.41922	506.57074	77.05262	-6.34386	465.57889	64.65607	-67.16956	501.80746	80.07159	-59.87992	455.83771	68.30456	-23.77842	151.68593	105.24584	0.00000	0.00000	0.00000	31.83494	101.51176	159.11717	-182.70036	86.68665	206.50027	-208.64861	112.70005	159.15021	-179.65735	72.95978	91.98389
1016	4.06000	282.28979	1077.19128	287.00955	56.03292	981.59583	423.05606	188.70766	638.80469	440.81491	189.47572	595.51642	437.51215	130.61972	632.90765	422.31470	140.92607	590.03442	419.70441	212.95755	553.31561	427.72568	194.68311	546.24731	273.34860	263.40121	470.36060	426.71640	264.09912	421.30362	426.26370	202.40144	460.57013	420.07202	214.64360	414.68558	414.82932	287.74585	99.01796	387.82809	282.05289	106.88141	291.95969	360.60684	84.86901	338.25375	137.60741	43.63216	393.35590	112.06949	75.48057	323.10236	143.89195	54.48434	279.34784	276.25394	1076.64014	205.18048	29.60441	995.89459	125.98717	-12.54767	642.46918	65.00823	-28.32404	601.19525	72.18195	-71.43298	659.12738	72.55934	-80.23203	615.81439	78.48773	-57.80707	574.46704	89.06211	-85.82824	584.58789	207.98543	-11.39989	504.46378	78.18356	-14.42507	463.59793	65.61523	-74.24132	501.38953	81.07388	-68.19765	455.26682	69.22052	-40.52132	149.22621	105.56770	0.00000	0.00000	0.00000	12.74942	97.68459	159.57924	-201.93918	89.24168	205.58757	-226.64940	115.95226	158.22615	-198.62872	75.88737	90.55862
1017	4.06400	276.92682	1076.47266	286.85477	49.43476	979.44379	423.16180	185.91130	638.37744	440.67767	187.03619	595.12012	437.38708	127.93175	632.12421	422.21527	138.57675	589.32129	419.54617	210.93675	553.10828	427.56567	192.80130	545.93005	273.14514	261.80475	470.33884	426.57178	263.14130	421.54062	425.70599	200.86935	460.28635	419.94742	212.85695	415.26270	414.85419	287.71237	99.02791	387.84122	282.00180	106.87862	291.93207	360.59796	84.92390	338.23227	137.61568	43.59354	393.35953	111.96561	75.41496	323.08505	143.87587	54.41966	279.34875	270.75073	1075.70862	205.07796	23.93927	994.83539	125.99718	-17.78576	640.97083	65.97938	-33.68280	599.73920	73.12786	-76.67902	657.77869	73.37564	-85.87926	614.35229	79.30492	-63.17630	573.23828	90.33617	-91.11760	583.56476	209.16568	-18.32184	502.44043	79.33681	-22.48505	461.61438	66.58994	-81.81105	500.89835	82.30549	-76.36135	454.72861	70.03813	-57.70316	147.77271	105.39820	0.00000	0.00000	0.00000	-5.86591	94.68540	159.43736	-220.92404	91.89351	204.55609	-244.66728	119.70742	157.38524	-217.46545	78.98758	89.79115
